# xmcd
# Copyright (C) 1995-1998 Ti Kan
#
# Track frame offsets:
#       150
#       20968
#       41063
#       54825
#       77013
#       99997
#       120473
#       139401
#       154722
#       179087
#
# Disc length: 2729 seconds
#
# Revision: 0
# Processed by: cddbd v1.5.2PL0 Copyright (c) Steve Scherf et al.
# Submitted via: CD-Import v1.0
#
DISCID=830aa70a
DTITLE=Joan As Police Woman - To Survive
DYEAR=2008
DGENRE=
TTITLE0=Honor Wishes (Feat. David Sylvian)
TTITLE1=Holiday
TTITLE2=To Be Loved
TTITLE3=To Be Lonely
TTITLE4=Magpies
TTITLE5=Start Of My Heart
TTITLE6=Hard White Wall
TTITLE7=Furious
TTITLE8=To Survive
TTITLE9=To America (Feat. Rufus Wainwright)
EXTD=
EXTT0=
EXTT1=
EXTT2=
EXTT3=
EXTT4=
EXTT5=
EXTT6=
EXTT7=
EXTT8=
EXTT9=
PLAYORDER=
